<svg width="273" height="216" viewBox="0 0 273 216" fill="none" xmlns="http://www.w3.org/2000/svg">
<path d="M239.119 215.263H33.9342C25.0366 215.214 16.5197 211.417 10.2474 204.705C3.97501 197.992 0.457947 188.91 0.465834 179.446V35.7999C0.512175 26.3765 4.05411 17.3535 10.3215 10.693C16.5888 4.03247 25.0748 0.272955 33.9342 0.231934H78.4707C78.9456 0.231934 79.4012 0.432625 79.737 0.789857C80.0729 1.14709 80.2615 1.6316 80.2615 2.1368C80.2615 2.642 80.0729 3.12652 79.737 3.48375C79.4012 3.84098 78.9456 4.04167 78.4707 4.04167H33.9342C25.9712 4.04994 18.3366 7.41828 12.7059 13.4074C7.07524 19.3966 3.90856 27.5173 3.90079 35.9872V179.633C3.90856 188.103 7.07524 196.224 12.7059 202.213C18.3366 208.202 25.9712 211.57 33.9342 211.579H239.119C243.077 211.574 246.995 210.739 250.648 209.121C254.302 207.502 257.619 205.132 260.41 202.147C263.2 199.161 265.409 195.619 266.909 191.723C268.409 187.828 269.172 183.655 269.152 179.446V126.172C269.152 125.667 269.341 125.182 269.677 124.825C270.013 124.468 270.468 124.267 270.943 124.267C271.418 124.267 271.874 124.468 272.21 124.825C272.545 125.182 272.734 125.667 272.734 126.172V179.446C272.734 188.934 269.194 198.035 262.892 204.751C256.59 211.466 248.04 215.247 239.119 215.263Z" fill="#F4F4F4"/>
</svg>
