<svg width="53" height="52" viewBox="0 0 53 52" fill="none" xmlns="http://www.w3.org/2000/svg">
<g clip-path="url(#clip0_317_374)">
<path d="M26.2154 21.2485C25.2345 21.2758 24.2764 21.3948 23.3489 21.5961C19.5084 22.6936 16.6904 26.2174 16.6904 30.3835C16.6904 35.4241 20.8157 39.5249 25.8862 39.5249C30.9567 39.5249 35.0819 35.424 35.0819 30.3835C35.082 25.4525 31.1341 21.4215 26.2154 21.2485Z" fill="white"/>
<path d="M44.3825 7.61587C39.442 2.70471 32.8734 0 25.8867 0C18.9 0 12.3315 2.70471 7.39117 7.61587C3.72475 11.2605 1.28228 15.797 0.265625 20.733C3.70329 14.5288 10.3459 10.3155 17.9605 10.3155C28.9861 10.3155 37.974 19.1483 38.1437 30.0694C38.1464 30.1738 38.1477 30.2785 38.1477 30.3835C38.1477 37.1043 32.6474 42.5722 25.8867 42.5722C19.126 42.5722 13.6257 37.1042 13.6257 30.3834C13.6257 29.5576 13.7092 28.7509 13.8673 27.9707C12.1726 30.4376 11.1803 33.4172 11.1803 36.6233C11.1803 44.9807 17.9199 51.8024 26.28 52C33.1194 51.9004 39.5348 49.2077 44.3823 44.3888C49.3227 39.4776 52.0436 32.9479 52.0436 26.0023C52.0436 19.0568 49.3227 12.5271 44.3825 7.61587Z" fill="white"/>
<path d="M30.9168 19.2689C27.7747 15.6541 23.1314 13.3628 17.9598 13.3628C8.5188 13.3628 0.837891 20.9984 0.837891 30.3836C0.837891 32.7592 1.32696 35.0723 2.26862 37.2078C3.53425 39.8391 5.25441 42.2656 7.39049 44.3889C8.86933 45.859 10.495 47.1298 12.2331 48.191C9.65887 45.0262 8.11443 41.0011 8.11443 36.6234C8.11443 27.8423 14.3251 20.477 22.6088 18.6378C23.6524 18.3497 24.7514 18.195 25.886 18.195C26.003 18.195 26.1195 18.1971 26.2356 18.2003C26.3742 18.1973 26.513 18.195 26.6523 18.195V18.2195C28.1635 18.3127 29.6017 18.6783 30.9168 19.2689Z" fill="white"/>
</g>
<defs>
<clipPath id="clip0_317_374">
<rect width="52.3088" height="52" fill="white"/>
</clipPath>
</defs>
</svg>
