<svg width="341" height="216" viewBox="0 0 341 216" fill="none" xmlns="http://www.w3.org/2000/svg">
<path d="M238.018 215.988H34.3401C25.4862 215.971 17.0001 212.184 10.7449 205.458C4.4897 198.732 0.976549 189.617 0.976563 180.113V36.2384C0.99197 26.7455 4.51199 17.6461 10.7655 10.9336C17.0191 4.22106 25.4962 0.442686 34.3401 0.426147H78.5723C79.0437 0.426147 79.4958 0.627159 79.8291 0.98496C80.1625 1.34276 80.3498 1.82805 80.3498 2.33405C80.3498 2.84006 80.1625 3.32532 79.8291 3.68312C79.4958 4.04092 79.0437 4.24194 78.5723 4.24194H34.3401C26.4394 4.25023 18.8649 7.62494 13.281 13.6245C7.6971 19.6242 4.56054 27.7579 4.56054 36.2384V180.113C4.56054 188.594 7.6971 196.727 13.281 202.727C18.8649 208.727 26.4394 212.101 34.3401 212.11H238.018C245.919 212.101 253.493 208.727 259.077 202.727C264.661 196.727 267.798 188.594 267.798 180.113V126.754C267.798 126.24 267.988 125.747 268.327 125.383C268.666 125.02 269.125 124.815 269.604 124.815H338.488C338.924 124.875 339.324 125.103 339.615 125.457C339.905 125.811 340.065 126.267 340.065 126.739C340.065 127.21 339.905 127.666 339.615 128.02C339.324 128.374 338.924 128.603 338.488 128.662H271.469V180.113C271.469 184.827 270.604 189.495 268.922 193.849C267.241 198.204 264.776 202.16 261.67 205.492C258.563 208.823 254.875 211.465 250.817 213.266C246.759 215.067 242.41 215.992 238.018 215.988Z" fill="#F4F4F4"/>
</svg>
